<svg xmlns="http://www.w3.org/2000/svg" xmlns:xlink="http://www.w3.org/1999/xlink" aria-hidden="true" role="img" width="20px" height="20px" preserveAspectRatio="xMidYMid meet" viewBox="0 0 36 36">
<path fill="url(#grad)" d="M32 6H4a2 2 0 0 0-2 2v20a2 2 0 0 0 2 2h28a2 2 0 0 0 2-2V8a2 2 0 0 0-2-2zM19 22H9a1 1 0 0 1 0-2h10a1 1 0 0 1 0 2zm8-4H9a1 1 0 0 1 0-2h18a1 1 0 0 1 0 2zm0-4H9a1 1 0 0 1 0-2h18a1 1 0 0 1 0 2z" class="clr-i-solid clr-i-solid-path-1"/>
<defs>
<linearGradient id="grad" x1="0%" y1="0%" x2="0%" y2="100%">
      <stop offset="0%" style="stop-color:#fa709a;stop-opacity:1" />
      <stop offset="100%" style="stop-color:#fee140;stop-opacity:1" />
</linearGradient>
</defs>
</svg>