
<svg xmlns="http://www.w3.org/2000/svg" xmlns:xlink="http://www.w3.org/1999/xlink" aria-hidden="true" role="img" width="24px" height="24px" preserveAspectRatio="xMidYMid meet" viewBox="0 0 24 24">
<defs>
<linearGradient id="grad" x1="0%" y1="0%" x2="0%" y2="100%">
      <stop offset="0%" style="stop-color:#fa709a;stop-opacity:1" />
      <stop offset="100%" style="stop-color:#fee140;stop-opacity:1" />
</linearGradient>
</defs>
<path d="M11.751 21.997c-5.221-.128-9.45-4.257-9.736-9.438l-.012-.313l9.748 9.751zM12 2a9.988 9.988 0 0 1 8.193 4.265l-1.638 1.148A8.003 8.003 0 0 0 4.534 9.12L14.88 19.466A8.018 8.018 0 0 0 19.748 14H15.5v-2H22c0 4.726-3.279 8.686-7.685 9.73L2.269 9.686C3.314 5.28 7.274 2 12 2z" fill="url(#grad)"/>
</svg>