<svg  xmlns="http://www.w3.org/2000/svg" xmlns:xlink="http://www.w3.org/1999/xlink" aria-hidden="true" role="img" width="30px" height="30px" preserveAspectRatio="xMidYMid meet" viewBox="0 0 16 16">
<g fill="currentColor">
<path fill="url(#grad)" d="M7.84 4.1a.178.178 0 0 1 .32 0l.634 1.285a.178.178 0 0 0 .134.098l1.42.206c.145.021.204.2.098.303L9.42 6.993a.178.178 0 0 0-.051.158l.242 1.414a.178.178 0 0 1-.258.187l-1.27-.668a.178.178 0 0 0-.165 0l-1.27.668a.178.178 0 0 1-.257-.187l.242-1.414a.178.178 0 0 0-.05-.158l-1.03-1.001a.178.178 0 0 1 .098-.303l1.42-.206a.178.178 0 0 0 .134-.098L7.84 4.1z"/>
<path fill="url(#grad)" d="M2 2a2 2 0 0 1 2-2h8a2 2 0 0 1 2 2v13.5a.5.5 0 0 1-.777.416L8 13.101l-5.223 2.815A.5.5 0 0 1 2 15.5V2zm2-1a1 1 0 0 0-1 1v12.566l4.723-2.482a.5.5 0 0 1 .554 0L13 14.566V2a1 1 0 0 0-1-1H4z"/>
</g>
<defs>
<linearGradient id="grad" x1="0%" y1="0%" x2="0%" y2="100%">
      <stop offset="0%" style="stop-color:#fa709a;stop-opacity:1" />
      <stop offset="100%" style="stop-color:#fee140;stop-opacity:1" />
</linearGradient>
</defs>
</svg>
