<svg xmlns="http://www.w3.org/2000/svg" xmlns:xlink="http://www.w3.org/1999/xlink" aria-hidden="true" role="img" width="26px" height="26px" preserveAspectRatio="xMidYMid meet" viewBox="0 0 1024 1024">
<path fill="url(#grad)" d="M920 760H336c-4.4 0-8 3.6-8 8v56c0 4.4 3.6 8 8 8h584c4.4 0 8-3.6 8-8v-56c0-4.4-3.6-8-8-8zm0-568H336c-4.4 0-8 3.6-8 8v56c0 4.4 3.6 8 8 8h584c4.4 0 8-3.6 8-8v-56c0-4.4-3.6-8-8-8zm0 284H336c-4.4 0-8 3.6-8 8v56c0 4.4 3.6 8 8 8h584c4.4 0 8-3.6 8-8v-56c0-4.4-3.6-8-8-8zM216 712H100c-2.2 0-4 1.8-4 4v34c0 2.2 1.8 4 4 4h72.4v20.5h-35.7c-2.2 0-4 1.8-4 4v34c0 2.2 1.8 4 4 4h35.7V838H100c-2.2 0-4 1.8-4 4v34c0 2.2 1.8 4 4 4h116c2.2 0 4-1.8 4-4V716c0-2.2-1.8-4-4-4zM100 188h38v120c0 2.2 1.8 4 4 4h40c2.2 0 4-1.8 4-4V152c0-4.4-3.6-8-8-8h-78c-2.2 0-4 1.8-4 4v36c0 2.2 1.8 4 4 4zm116 240H100c-2.2 0-4 1.8-4 4v36c0 2.2 1.8 4 4 4h68.4l-70.3 77.7a8.3 8.3 0 0 0-2.1 5.4V592c0 2.2 1.8 4 4 4h116c2.2 0 4-1.8 4-4v-36c0-2.2-1.8-4-4-4h-68.4l70.3-77.7a8.3 8.3 0 0 0 2.1-5.4V432c0-2.2-1.8-4-4-4z" />
<defs>
<linearGradient id="grad" x1="0%" y1="0%" x2="0%" y2="100%">
      <stop offset="0%" style="stop-color:#fa709a;stop-opacity:1" />
      <stop offset="100%" style="stop-color:#fee140;stop-opacity:1" />
</linearGradient>
</defs>
</svg>